<svg xmlns="http://www.w3.org/2000/svg" xmlns:xlink="http://www.w3.org/1999/xlink" width="400" height="1172" viewBox="0 0 400 1172"><svg viewBox="0 0 385.364 385.364" width="385.364" height="385.364" id="bee" y="0"><path d="M52.853 77.873a7.28 7.28 0 0 1-3.12-14.2 61.56 61.56 0 0 1 38.04 5.6 61.52 61.52 0 0 1 7.76-37.64 7.28 7.28 0 1 1 12.32 7.76 46.279 46.279 0 0 0 3.32 50.56 7.301 7.301 0 0 1-12 8.32 46.238 46.238 0 0 0-46.32-20.4z" fill="#1b1b1b"></path><path d="M261.333 290.033l49.08 84.24a6.6 6.6 0 0 1-1.56 8.8l-1.76 1.24a6.56 6.56 0 0 1-8.8-1.56l-62.44-74.92c-37.12 12.24-89.6-13.48-124.84-64-39.96-56.88-41.44-123.12-4.68-148.96s97.76-1.08 137.72 56c35.24 50.36 41.44 108.48 17.28 139.16z" fill="#1b1b1b"></path><g fill="#ffed00"><path d="M275.293 252.713c1.122-12.34.34-24.778-2.32-36.88-49.072 1.545-92.576 31.987-110.84 77.56a120.812 120.812 0 0 0 33.84 14.8 123.998 123.998 0 0 1 79.32-55.48zM181.973 203.793a123.321 123.321 0 0 1 79.72-22.04 191.968 191.968 0 0 0-17.64-30.84l-2.2-3.08c-61.332-6.477-118.057 33.235-132.96 93.08l2.12 3.12a192.07 192.07 0 0 0 22.96 27.12 123.322 123.322 0 0 1 48-67.36zM133.973 135.233a123.238 123.238 0 0 1 75-22.28c-35.68-28.96-76.68-37.84-104-18.84s-32.8 60.56-17.8 104a123.24 123.24 0 0 1 46.8-62.88z"></path></g><path d="M159.413 86.793s137.24-27.44 192 50.72-23.8 136.6-78.44 78.28a178.684 178.684 0 0 0-28.92-64.88c-23.72-33.88-55.4-56.6-84.64-64.12zm-79.68 55.76s-72.72 119.56-18 197.72 136.52 24.44 100.4-46.88a178.69 178.69 0 0 1-51.08-49.36c-23.72-33.88-34.4-71.32-31.32-101.48z" fill="#e1efda"></path><g fill="#f16730"><circle cx="33.389" cy="68.928" r="18"></circle><circle cx="106.061" cy="18.002" r="18"></circle></g></svg><svg viewBox="0 0 385.38 385.38" width="385.38" height="385.38" id="rainbow" y="386"><path d="M189.52 64.281c-81.628.029-147.776 66.225-147.747 147.853A147.84 147.84 0 0 0 47 251.041a52.44 52.44 0 0 1 31.24-18.92c-11.069-61.486 29.802-120.304 91.288-131.373a113.118 113.118 0 0 1 104.192 35.733 36.24 36.24 0 0 1 28-20.48 148.003 148.003 0 0 0-112.2-51.72z" fill="#ffed00"></path><g fill="#50d1ef"><path d="M159.2 271.441c23.815.011 43.111 19.325 43.101 43.139-.011 23.799-19.301 43.09-43.101 43.101H33.72c-18.623 0-33.72-15.097-33.72-33.72s15.097-33.72 33.72-33.72H36c-3.965-28.719 16.101-55.215 44.82-59.18s55.215 16.101 59.18 44.82a42.924 42.924 0 0 1 19.2-4.44zM355.6 143.481c16.447 0 29.78 13.333 29.78 29.78s-13.333 29.78-29.78 29.78h-86.64c-12.857.005-23.284-10.413-23.29-23.27-.005-12.857 10.413-23.284 23.27-23.29h1.579a36.647 36.647 0 0 1-.28-4.6c.295-20.013 16.758-35.997 36.771-35.701 17.551.259 32.393 13.059 35.229 30.381a29.662 29.662 0 0 1 13.361-3.08z"></path></g><path d="M41.76 212.081c.115-81.628 66.38-147.707 148.008-147.592a147.8 147.8 0 0 1 111.992 51.592c19.56-2.501 37.53 11.096 40.44 30.6a29.876 29.876 0 0 1 16.4-2.96C321.869 49.872 216.014 3.568 122.165 40.299S-17.988 182.885 18.742 276.734a182.623 182.623 0 0 0 6.458 14.587 33.688 33.688 0 0 1 8.52-1.08H36a52.821 52.821 0 0 1-.4-6.64 52.236 52.236 0 0 1 11.4-32.64 147.724 147.724 0 0 1-5.24-38.88z" fill="#f16730"></path><path d="M189.52 98.921c-62.474.002-113.118 50.649-113.116 113.124 0 6.732.601 13.451 1.796 20.076a52.906 52.906 0 0 1 9.84-.92 51.994 51.994 0 0 1 26.96 7.44c-14.671-41.16 6.802-86.421 47.962-101.092 32.243-11.493 68.22-.948 89.158 26.132a23.199 23.199 0 0 1 16.84-7.2h1.56a36.647 36.647 0 0 1-.28-4.6 36.007 36.007 0 0 1 3.44-15.44 113.124 113.124 0 0 0-84.16-37.52z" fill="#45b549"></path></svg><svg viewBox="0 0 400 400" width="400" height="400" id="sun" y="772"><path d="M130.46 65.02a7.28 7.28 0 1 1-12.6 7.28L97.34 36.78a7.28 7.28 0 1 1 12.601-7.28l20.519 35.52zM72.3 117.86a7.28 7.28 0 0 1-7.28 12.6l-35.56-20.52a7.28 7.28 0 0 1 7.28-12.6l35.56 20.52zm-24 74.8c4.032 0 7.3 3.268 7.3 7.3s-3.268 7.3-7.3 7.3h-41a7.3 7.3 0 0 1-7.3-7.3 7.3 7.3 0 0 1 7.3-7.3h41zm16.68 76.8a7.28 7.28 0 1 1 7.28 12.6l-35.48 20.56a7.28 7.28 0 1 1-7.28-12.601l35.48-20.559zm52.88 58.2a7.28 7.28 0 0 1 12.6 7.28l-20.52 35.56a7.28 7.28 0 1 1-12.599-7.28l20.519-35.56zm74.8 24a7.3 7.3 0 0 1 7.3-7.3 7.3 7.3 0 0 1 7.3 7.3v41.04a7.3 7.3 0 0 1-7.3 7.3 7.3 7.3 0 0 1-7.3-7.3v-41.04zm76.8-16.68a7.28 7.28 0 0 1 12.6-7.28l20.52 35.56a7.28 7.28 0 1 1-12.601 7.28l-20.519-35.56zm58.2-52.88a7.28 7.28 0 1 1 7.28-12.599l35.56 20.52a7.28 7.28 0 1 1-7.28 12.599l-35.56-20.52zm24-74.8a7.3 7.3 0 0 1-7.3-7.3 7.3 7.3 0 0 1 7.3-7.3h41.04a7.3 7.3 0 0 1 7.3 7.3 7.3 7.3 0 0 1-7.3 7.3h-41.04zm-16.68-76.8a7.28 7.28 0 1 1-7.28-12.601l35.56-20.52a7.28 7.28 0 0 1 7.28 12.6L334.98 130.5zM282.1 72.3a7.28 7.28 0 0 1-9.851 2.991 7.28 7.28 0 0 1-2.748-10.271l20.52-35.56a7.28 7.28 0 0 1 9.851-2.991 7.28 7.28 0 0 1 2.748 10.271L282.1 72.3zm-74.8-24a7.3 7.3 0 0 1-7.3 7.3 7.3 7.3 0 0 1-7.3-7.3v-41A7.3 7.3 0 0 1 200 0a7.3 7.3 0 0 1 7.3 7.3v41zm-7.32 51.68c55.228 0 100 44.772 100 100s-44.772 100-100 100-100-44.772-100-100 44.772-100 100-100z" fill="#ffed00"></path></svg></svg>